<?xml version="1.0" encoding="UTF-8" standalone="no"?>
<!-- Created with Inkscape (http://www.inkscape.org/) -->

<svg
   xmlns:dc="http://purl.org/dc/elements/1.1/"
   xmlns:cc="http://creativecommons.org/ns#"
   xmlns:rdf="http://www.w3.org/1999/02/22-rdf-syntax-ns#"
   xmlns:svg="http://www.w3.org/2000/svg"
   xmlns="http://www.w3.org/2000/svg"
   xmlns:xlink="http://www.w3.org/1999/xlink"
   xmlns:sodipodi="http://sodipodi.sourceforge.net/DTD/sodipodi-0.dtd"
   xmlns:inkscape="http://www.inkscape.org/namespaces/inkscape"
   width="720.03003"
   height="657.69"
   id="svg2818"
   version="1.1"
   inkscape:version="0.47pre4 r22446"
   sodipodi:docname="threadhackicon.svg"
   style="display:inline">
  <defs
     id="defs2820">
    <linearGradient
       id="linearGradient5079">
      <stop
         style="stop-color:#000000;stop-opacity:1;"
         offset="0"
         id="stop5081" />
      <stop
         id="stop5089"
         offset="0.25"
         style="stop-color:#000000;stop-opacity:1;" />
      <stop
         id="stop5087"
         offset="0.5"
         style="stop-color:#000000;stop-opacity:0.82882881;" />
      <stop
         style="stop-color:#000000;stop-opacity:0.56756759;"
         offset="1"
         id="stop5083" />
    </linearGradient>
    <linearGradient
       id="linearGradient3613">
      <stop
         style="stop-color:#000000;stop-opacity:1;"
         offset="0"
         id="stop3615" />
      <stop
         style="stop-color:#000000;stop-opacity:0;"
         offset="1"
         id="stop3617" />
    </linearGradient>
    <inkscape:perspective
       sodipodi:type="inkscape:persp3d"
       inkscape:vp_x="0 : 526.18109 : 1"
       inkscape:vp_y="0 : 1000 : 0"
       inkscape:vp_z="744.09448 : 526.18109 : 1"
       inkscape:persp3d-origin="372.04724 : 350.78739 : 1"
       id="perspective2826" />
    <inkscape:perspective
       id="perspective5125"
       inkscape:persp3d-origin="0.5 : 0.33333333 : 1"
       inkscape:vp_z="1 : 0.5 : 1"
       inkscape:vp_y="0 : 1000 : 0"
       inkscape:vp_x="0 : 0.5 : 1"
       sodipodi:type="inkscape:persp3d" />
    <linearGradient
       id="linearGradient5079-5">
      <stop
         style="stop-color:#000000;stop-opacity:1;"
         offset="0"
         id="stop5081-4" />
      <stop
         id="stop5089-2"
         offset="0.25"
         style="stop-color:#000000;stop-opacity:1;" />
      <stop
         id="stop5087-8"
         offset="0.5"
         style="stop-color:#000000;stop-opacity:0.82882881;" />
      <stop
         style="stop-color:#000000;stop-opacity:0.56756759;"
         offset="1"
         id="stop5083-9" />
    </linearGradient>
    <linearGradient
       inkscape:collect="always"
       xlink:href="#linearGradient5079"
       id="linearGradient5353"
       gradientUnits="userSpaceOnUse"
       x1="55.357143"
       y1="500.93359"
       x2="573.21429"
       y2="500.93359" />
    <linearGradient
       inkscape:collect="always"
       xlink:href="#linearGradient5079"
       id="linearGradient5412"
       gradientUnits="userSpaceOnUse"
       x1="55.357143"
       y1="500.93359"
       x2="573.21429"
       y2="500.93359" />
    <linearGradient
       inkscape:collect="always"
       xlink:href="#linearGradient5079"
       id="linearGradient5432"
       gradientUnits="userSpaceOnUse"
       x1="55.357143"
       y1="500.93359"
       x2="573.21429"
       y2="500.93359" />
    <linearGradient
       inkscape:collect="always"
       xlink:href="#linearGradient5079"
       id="linearGradient5452"
       gradientUnits="userSpaceOnUse"
       x1="55.357143"
       y1="500.93359"
       x2="573.21429"
       y2="500.93359" />
  </defs>
  <sodipodi:namedview
     id="base"
     pagecolor="#1f3fef"
     bordercolor="#666666"
     borderopacity="1.0"
     inkscape:pageopacity="0"
     inkscape:pageshadow="2"
     inkscape:zoom="0.43760601"
     inkscape:cx="238.45168"
     inkscape:cy="255.48087"
     inkscape:document-units="px"
     inkscape:current-layer="g5376"
     showgrid="true"
     inkscape:snap-bbox="true"
     inkscape:snap-grids="true"
     inkscape:window-width="1125"
     inkscape:window-height="799"
     inkscape:window-x="26"
     inkscape:window-y="70"
     inkscape:window-maximized="0"
     showguides="false"
     inkscape:snap-global="false">
    <inkscape:grid
       type="xygrid"
       id="grid5322"
       empspacing="5"
       visible="true"
       enabled="true"
       snapvisiblegridlinesonly="true" />
  </sodipodi:namedview>
  <metadata
     id="metadata2823">
    <rdf:RDF>
      <cc:Work
         rdf:about="">
        <dc:format>image/svg+xml</dc:format>
        <dc:type
           rdf:resource="http://purl.org/dc/dcmitype/StillImage" />
        <dc:title></dc:title>
      </cc:Work>
    </rdf:RDF>
  </metadata>
  <g
     id="g5376"
     inkscape:groupmode="layer"
     inkscape:label="Layer 1 copy"
     transform="translate(-14.191394,-163.72863)">
    <g
       transform="matrix(0.96316505,0,0,0.96316505,16.013821,27.971751)"
       id="g5378">
      <g
         id="g5380"
         transform="matrix(0.62797158,0,0,0.62797158,-22.844227,98.744095)">
        <path
           transform="translate(-31.428571,5.7142857)"
           d="m 622.85714,508.07648 c 0,13.41263 -10.23349,24.28571 -22.85714,24.28571 -12.62365,0 -22.85714,-10.87308 -22.85714,-24.28571 0,-13.41263 10.23349,-24.28572 22.85714,-24.28572 12.62365,0 22.85714,10.87309 22.85714,24.28572 z"
           sodipodi:ry="24.285715"
           sodipodi:rx="22.857143"
           sodipodi:cy="508.07648"
           sodipodi:cx="600"
           id="path5382"
           style="fill:#000000;fill-rule:evenodd;stroke:#000000;stroke-width:1;stroke-linecap:butt;stroke-linejoin:miter;stroke-miterlimit:4;stroke-opacity:1;stroke-dasharray:none"
           sodipodi:type="arc" />
        <path
           id="path5384"
           d="m 565.71429,509.50504 c -71.42857,-2.85715 -71.42857,-2.85715 -74.28572,-2.85715 -2.85714,0 2.85715,-2.85714 2.85715,-2.85714 0,122.85714 -2.85715,125.71429 -2.85715,125.71429 0,0 0,0 0,0 l 0,0 c -40,0 -40,0 -40,0 5.71429,-251.42857 5.71429,-251.42857 5.71429,-251.42857 -45.71429,2.85714 -48.57143,2.85714 -48.57143,2.85714 2.85714,411.42857 -2.85714,411.42857 -2.85714,411.42857 -40,0 -40,0 -40,0 0,-582.85714 0,-582.85714 0,-582.85714 -51.42857,-2.85715 -51.42857,-2.85715 -51.42857,-2.85715 0,588.57143 -2.85715,588.57143 -2.85715,588.57143 -42.85714,-2.85714 -42.85714,-5.71428 -42.85714,-5.71428 0,-411.42857 0,-411.42857 0,-411.42857 -54.28571,0 -48.57143,0 -48.57143,0 0,257.14285 0,257.14285 0,257.14285 -54.28571,0 -54.28571,-2.85714 -54.28571,-2.85714 0,-188.57143 0,-188.57143 0,-188.57143 -45.71429,0 -45.71429,0 -45.71429,0 l 0,0 0,0 c 0,100 0,100 0,100 -57.142857,0 -57.142857,0 -57.142857,0"
           style="fill:none;stroke:url(#linearGradient5353);stroke-width:15;stroke-linecap:round;stroke-linejoin:round;stroke-miterlimit:4;stroke-opacity:1;stroke-dasharray:none" />
        <path
           transform="translate(2.8571429,20)"
           d="m 80,520.93359 c 0,12.62366 -10.233492,22.85715 -22.857143,22.85715 -12.623652,0 -22.857144,-10.23349 -22.857144,-22.85715 0,-12.62365 10.233492,-22.85714 22.857144,-22.85714 C 69.766508,498.07645 80,508.30994 80,520.93359 z"
           sodipodi:ry="22.857143"
           sodipodi:rx="22.857143"
           sodipodi:cy="520.93359"
           sodipodi:cx="57.142857"
           id="path5386"
           style="fill:#000000"
           sodipodi:type="arc" />
      </g>
      <g
         id="use5388"
         transform="matrix(-0.62797158,0,0,-0.62797158,768.25916,864.21476)">
        <path
           transform="translate(-31.428571,5.7142857)"
           d="m 622.85714,508.07648 c 0,13.41263 -10.23349,24.28571 -22.85714,24.28571 -12.62365,0 -22.85714,-10.87308 -22.85714,-24.28571 0,-13.41263 10.23349,-24.28572 22.85714,-24.28572 12.62365,0 22.85714,10.87309 22.85714,24.28572 z"
           sodipodi:ry="24.285715"
           sodipodi:rx="22.857143"
           sodipodi:cy="508.07648"
           sodipodi:cx="600"
           id="path5406"
           style="fill:#000000;fill-rule:evenodd;stroke:#000000;stroke-width:1;stroke-linecap:butt;stroke-linejoin:miter;stroke-miterlimit:4;stroke-opacity:1;stroke-dasharray:none"
           sodipodi:type="arc" />
        <path
           id="path5408"
           d="m 565.71429,509.50504 c -71.42857,-2.85715 -71.42857,-2.85715 -74.28572,-2.85715 -2.85714,0 2.85715,-2.85714 2.85715,-2.85714 0,122.85714 -2.85715,125.71429 -2.85715,125.71429 0,0 0,0 0,0 l 0,0 c -40,0 -40,0 -40,0 5.71429,-251.42857 5.71429,-251.42857 5.71429,-251.42857 -45.71429,2.85714 -48.57143,2.85714 -48.57143,2.85714 2.85714,411.42857 -2.85714,411.42857 -2.85714,411.42857 -40,0 -40,0 -40,0 0,-582.85714 0,-582.85714 0,-582.85714 -51.42857,-2.85715 -51.42857,-2.85715 -51.42857,-2.85715 0,588.57143 -2.85715,588.57143 -2.85715,588.57143 -42.85714,-2.85714 -42.85714,-5.71428 -42.85714,-5.71428 0,-411.42857 0,-411.42857 0,-411.42857 -54.28571,0 -48.57143,0 -48.57143,0 0,257.14285 0,257.14285 0,257.14285 -54.28571,0 -54.28571,-2.85714 -54.28571,-2.85714 0,-188.57143 0,-188.57143 0,-188.57143 -45.71429,0 -45.71429,0 -45.71429,0 l 0,0 0,0 c 0,100 0,100 0,100 -57.142857,0 -57.142857,0 -57.142857,0"
           style="fill:none;stroke:url(#linearGradient5412);stroke-width:15;stroke-linecap:round;stroke-linejoin:round;stroke-miterlimit:4;stroke-opacity:1;stroke-dasharray:none" />
        <path
           transform="translate(2.8571429,20)"
           d="m 80,520.93359 c 0,12.62366 -10.233492,22.85715 -22.857143,22.85715 -12.623652,0 -22.857144,-10.23349 -22.857144,-22.85715 0,-12.62365 10.233492,-22.85714 22.857144,-22.85714 C 69.766508,498.07645 80,508.30994 80,520.93359 z"
           sodipodi:ry="22.857143"
           sodipodi:rx="22.857143"
           sodipodi:cy="520.93359"
           sodipodi:cx="57.142857"
           id="path5410"
           style="fill:#000000"
           sodipodi:type="arc" />
      </g>
      <g
         transform="matrix(0,-0.62797158,0.62797158,0,89.70581,517.55963)"
         id="use5390">
        <path
           sodipodi:type="arc"
           style="fill:#000000;fill-rule:evenodd;stroke:#000000;stroke-width:1;stroke-linecap:butt;stroke-linejoin:miter;stroke-miterlimit:4;stroke-opacity:1;stroke-dasharray:none"
           id="path5426"
           sodipodi:cx="600"
           sodipodi:cy="508.07648"
           sodipodi:rx="22.857143"
           sodipodi:ry="24.285715"
           d="m 622.85714,508.07648 c 0,13.41263 -10.23349,24.28571 -22.85714,24.28571 -12.62365,0 -22.85714,-10.87308 -22.85714,-24.28571 0,-13.41263 10.23349,-24.28572 22.85714,-24.28572 12.62365,0 22.85714,10.87309 22.85714,24.28572 z"
           transform="translate(-31.428571,5.7142857)" />
        <path
           style="fill:none;stroke:url(#linearGradient5432);stroke-width:15;stroke-linecap:round;stroke-linejoin:round;stroke-miterlimit:4;stroke-opacity:1;stroke-dasharray:none"
           d="m 565.71429,509.50504 c -71.42857,-2.85715 -71.42857,-2.85715 -74.28572,-2.85715 -2.85714,0 2.85715,-2.85714 2.85715,-2.85714 0,122.85714 -2.85715,125.71429 -2.85715,125.71429 0,0 0,0 0,0 l 0,0 c -40,0 -40,0 -40,0 5.71429,-251.42857 5.71429,-251.42857 5.71429,-251.42857 -45.71429,2.85714 -48.57143,2.85714 -48.57143,2.85714 2.85714,411.42857 -2.85714,411.42857 -2.85714,411.42857 -40,0 -40,0 -40,0 0,-582.85714 0,-582.85714 0,-582.85714 -51.42857,-2.85715 -51.42857,-2.85715 -51.42857,-2.85715 0,588.57143 -2.85715,588.57143 -2.85715,588.57143 -42.85714,-2.85714 -42.85714,-5.71428 -42.85714,-5.71428 0,-411.42857 0,-411.42857 0,-411.42857 -54.28571,0 -48.57143,0 -48.57143,0 0,257.14285 0,257.14285 0,257.14285 -54.28571,0 -54.28571,-2.85714 -54.28571,-2.85714 0,-188.57143 0,-188.57143 0,-188.57143 -45.71429,0 -45.71429,0 -45.71429,0 l 0,0 0,0 c 0,100 0,100 0,100 -57.142857,0 -57.142857,0 -57.142857,0"
           id="path5428" />
        <path
           sodipodi:type="arc"
           style="fill:#000000"
           id="path5430"
           sodipodi:cx="57.142857"
           sodipodi:cy="520.93359"
           sodipodi:rx="22.857143"
           sodipodi:ry="22.857143"
           d="m 80,520.93359 c 0,12.62366 -10.233492,22.85715 -22.857143,22.85715 -12.623652,0 -22.857144,-10.23349 -22.857144,-22.85715 0,-12.62365 10.233492,-22.85714 22.857144,-22.85714 C 69.766508,498.07645 80,508.30994 80,520.93359 z"
           transform="translate(2.8571429,20)" />
      </g>
      <g
         id="use5392"
         transform="matrix(0,0.62797158,-0.62797158,0,654.27414,449.70428)">
        <path
           transform="translate(-31.428571,5.7142857)"
           d="m 622.85714,508.07648 c 0,13.41263 -10.23349,24.28571 -22.85714,24.28571 -12.62365,0 -22.85714,-10.87308 -22.85714,-24.28571 0,-13.41263 10.23349,-24.28572 22.85714,-24.28572 12.62365,0 22.85714,10.87309 22.85714,24.28572 z"
           sodipodi:ry="24.285715"
           sodipodi:rx="22.857143"
           sodipodi:cy="508.07648"
           sodipodi:cx="600"
           id="path5446"
           style="fill:#000000;fill-rule:evenodd;stroke:#000000;stroke-width:1;stroke-linecap:butt;stroke-linejoin:miter;stroke-miterlimit:4;stroke-opacity:1;stroke-dasharray:none"
           sodipodi:type="arc" />
        <path
           id="path5448"
           d="m 565.71429,509.50504 c -71.42857,-2.85715 -71.42857,-2.85715 -74.28572,-2.85715 -2.85714,0 2.85715,-2.85714 2.85715,-2.85714 0,122.85714 -2.85715,125.71429 -2.85715,125.71429 0,0 0,0 0,0 l 0,0 c -40,0 -40,0 -40,0 5.71429,-251.42857 5.71429,-251.42857 5.71429,-251.42857 -45.71429,2.85714 -48.57143,2.85714 -48.57143,2.85714 2.85714,411.42857 -2.85714,411.42857 -2.85714,411.42857 -40,0 -40,0 -40,0 0,-582.85714 0,-582.85714 0,-582.85714 -51.42857,-2.85715 -51.42857,-2.85715 -51.42857,-2.85715 0,588.57143 -2.85715,588.57143 -2.85715,588.57143 -42.85714,-2.85714 -42.85714,-5.71428 -42.85714,-5.71428 0,-411.42857 0,-411.42857 0,-411.42857 -54.28571,0 -48.57143,0 -48.57143,0 0,257.14285 0,257.14285 0,257.14285 -54.28571,0 -54.28571,-2.85714 -54.28571,-2.85714 0,-188.57143 0,-188.57143 0,-188.57143 -45.71429,0 -45.71429,0 -45.71429,0 l 0,0 0,0 c 0,100 0,100 0,100 -57.142857,0 -57.142857,0 -57.142857,0"
           style="fill:none;stroke:url(#linearGradient5452);stroke-width:15;stroke-linecap:round;stroke-linejoin:round;stroke-miterlimit:4;stroke-opacity:1;stroke-dasharray:none" />
        <path
           transform="translate(2.8571429,20)"
           d="m 80,520.93359 c 0,12.62366 -10.233492,22.85715 -22.857143,22.85715 -12.623652,0 -22.857144,-10.23349 -22.857144,-22.85715 0,-12.62365 10.233492,-22.85714 22.857144,-22.85714 C 69.766508,498.07645 80,508.30994 80,520.93359 z"
           sodipodi:ry="22.857143"
           sodipodi:rx="22.857143"
           sodipodi:cy="520.93359"
           sodipodi:cx="57.142857"
           id="path5450"
           style="fill:#000000"
           sodipodi:type="arc" />
      </g>
    </g>
  </g>
</svg>
